<?xml version="1.0" encoding="utf-8" ?><svg xmlns="http://www.w3.org/2000/svg" xmlns:xlink="http://www.w3.org/1999/xlink" viewBox="348 255 334 510"><path fill="#56676B" d="M647.946 407.088L648.847 407.485C648.94 418.621 649.275 430.506 650.663 441.555C641.698 443.485 633.028 445.054 624.108 447.306C633.271 474.823 642.334 504.989 650.841 532.842L589.033 544.459C571.889 547.53 552.876 550.41 536.122 554.417C542.194 555.444 548.8 556.515 554.897 557.124C567.962 583.577 580.232 609.996 593.528 636.59C578.371 654.423 563.481 672.482 548.864 690.76C542.351 698.815 530.985 712.267 525.654 720.496C534.686 710.975 544.266 702.309 553.615 693.11C557.641 689.149 561.743 685.42 566.054 681.771C568.61 681.97 571.341 682.303 573.881 682.68C587.364 684.684 600.968 685.988 614.444 687.976C614.401 684.08 614.959 679.055 615.29 675.09L640.975 675.508L640.968 705.307L633.147 700.361C635.064 715.581 638.17 733.363 640.727 748.589C623.062 748.708 606.326 748.809 588.6 748.514C589.889 743.222 595.367 726.258 603.118 730.727C605.724 734.757 604.241 739.591 603.38 744.156C604.983 739.436 607.366 729.537 611.891 727.569C613.99 727.518 628.31 727.394 629.091 726.624C621.822 725.884 615.284 725.588 608.053 725.024C609.767 719.135 611.653 713.094 612.902 707.104C600.645 706.367 594.64 711.152 584.066 716.263L544.826 734.822C538.961 737.604 520.233 746.898 514.977 747.732C506.11 749.139 485.899 747.746 476.081 747.161C477.166 743.683 480.779 736.085 482.326 732.414C486.49 722.349 490.72 712.311 495.016 702.301L512.993 660.701C516.929 651.666 524.471 631.73 531.584 626.183C528.244 622.974 513.578 613.817 508.714 610.544C492.989 599.96 476.692 587.22 460.526 577.667C466.193 566.823 470.738 554.034 476.421 542.782C488.316 537.873 506.08 532.991 518.758 529.046L514.789 520.703C524.742 516.952 534.814 513.524 544.988 510.423C551.379 516.611 559.018 525.967 564.994 532.926L554.315 509.521C559.057 506.476 564.642 503.493 569.594 500.705C583.358 503.04 597.042 505.821 610.626 509.044C608.586 506.618 606.579 504.165 604.606 501.685C604.434 479.333 604.388 456.979 604.468 434.626C612.991 432.295 624.609 430.454 633.773 428.234L637.038 410.188C640.479 409.104 644.438 408.082 647.946 407.088Z"/><path fill="#9DB136" d="M539.993 270.92C537.576 280.81 535.647 290.812 534.212 300.89C539.653 296.354 544.616 291.456 550.063 286.894C547.895 292.332 546.46 298.182 544.919 303.844C551.391 294.445 560.77 283.077 568.082 274.493C565.997 287.32 563.231 300.516 560.892 313.366C564.476 308.021 568.383 302.209 572.661 297.435C572.359 301.761 572.172 310.124 572.35 314.408C572.198 315.967 571.741 318.058 572.516 319.254C573.868 318.681 575.072 316.448 575.967 315.123C576.496 314.72 580.625 309.052 581.324 308.112C581.644 313.38 582.008 318.831 581.577 324.091C586.618 318.492 591.799 313.022 597.115 307.685C596.145 313.711 595.951 322.828 595.656 329.066C601.917 324.261 607.703 318.529 613.988 313.522C610.88 320.625 609.195 325.882 607.279 333.262C611.157 330.93 612.991 330.1 617.195 328.563C615.467 333.559 614.177 336.529 611.972 341.295C616.738 337.607 624.911 333.669 630.417 330.812C630.534 336.394 630.676 342.956 629.905 348.449C638.821 339.482 649.129 329.95 658.458 321.347C655.18 330.622 651.662 343.558 648.905 353.128C655.363 348.475 660.613 345.182 667.44 340.936C664.326 348.703 661.109 362.551 658.033 371.466C655.8 372.269 653.207 372.955 650.875 373.57C635.323 377.676 619.822 382.654 604.088 385.944C601.429 386.5 596.713 383.684 592.966 384.722C586.426 386.532 579.728 388.491 573.208 390.332L529.075 402.932C522.675 397.806 511.952 390.915 504.914 386.023C494.556 378.823 481.557 368.975 470.729 362.96C467.598 363.425 464.458 363.83 461.312 364.174C456.04 361.835 418.032 334.915 414.284 331.362C418.396 312.354 424.873 301.312 432.826 283.749C433.301 291.544 431.496 312.991 430.277 321.057C439.142 311.149 448.748 301.673 458.204 292.329C456.854 297.897 456.333 309.709 455.435 316.276C461.978 304.186 469.199 292.475 477.064 281.2C476.781 289.463 475.669 297.849 475.431 306.346C479.868 300.345 483.3 293.236 488.349 287.341C487.481 294.807 486.962 301.277 486.469 308.806C491.963 303.937 496.846 299.944 502.88 295.787C501.725 300.587 500.468 305.361 499.11 310.107C512.682 297.43 526.422 282.783 539.993 270.92Z"/><path fill="#56676B" d="M401.164 613.951C426.564 615.508 451.98 616.798 477.407 617.821C486.21 618.26 495.848 618.393 504.543 619.107C508.885 622.129 513.247 625.871 517.362 629.248C512.814 641.914 505.744 660.651 502.69 673.45C479.957 662.974 457.713 649.158 435.05 638.324C431.318 636.539 427.63 634.193 423.922 632.475L469.065 666.103L456.979 705.77C461.468 719.555 466.081 733.3 470.815 747.003C461.383 746.835 451.95 746.745 442.517 746.734L441.998 734.816C437.76 739.239 433.683 743.813 429.775 748.529C416.118 747.766 397.634 747.989 383.649 748.381C385.516 742.065 388.955 734.424 391.479 728.13C397.312 728.039 403.146 727.995 408.98 727.998C407.329 733.953 405.937 738.581 403.845 744.388C406.371 741.465 410.16 731.419 411.813 727.426C414.727 723.35 430.51 717.925 436.558 714.258C438.078 713.541 439.355 713.126 440.444 711.873C439.19 711.156 438.425 711.515 436.685 711.603C434.21 711.764 434.353 712.173 432.69 711.107C424.18 681.743 413.655 652.631 404.483 623.438C403.549 620.464 402.358 616.818 401.164 613.951Z"/><path fill="#9DB136" d="M412.173 341.603C414.834 342.749 424.843 349.846 427.769 351.855C437.997 358.876 447.611 365.636 458.274 372.072L468.277 371.743C472.503 373.932 483.14 381.679 487.696 384.85L524.743 410.621C524.127 417.306 516.785 453.485 514.759 459.184L513.781 459.289C493.891 446.86 473.269 431.473 453.317 418.41L441.706 418.151C427.736 409.319 414.932 399.426 400.313 390.658C403.815 373.521 408.076 358.396 412.173 341.603Z"/><path fill="#56676B" d="M384.152 437.83C385.526 439.581 388.938 456.006 389.741 459.55C399.459 466.365 413.309 474.339 423.655 480.676C422.321 493.545 419.33 508.739 417.717 521.845C416.744 529.753 414.097 549.751 412.181 556.713C416.374 550.084 422.183 538.965 426.567 533.266C434.526 531.643 442.112 529.3 450.034 527.62C447.433 535.694 444.926 543.799 442.514 551.932C449.019 549.553 459.829 546.911 466.789 544.993C462.176 552.448 458.202 560.181 453.39 567.763L448.375 569.216C419.864 575.724 390.935 583.537 362.543 589.667C368.15 576.993 373.671 561.767 378.613 548.764C385.76 529.866 393.216 511.086 400.977 492.432C393.743 486.342 380.323 475.998 372.583 470.603C374.965 461.842 380.665 446.189 384.152 437.83Z"/><path fill="#9DB136" d="M652.697 382.055L653.362 382.03L653.755 382.715C652.864 387.875 650.469 395.502 648.89 400.667C643.951 402.346 635.166 404.267 629.752 405.695C628.289 411.811 627.085 417.642 625.503 423.804C616.292 426.241 606.712 428.159 597.403 430.555C597.573 435.996 597.443 441.858 597.421 447.333C579.579 445.173 579.597 442.937 561.493 448.091C548.46 451.802 531.961 457.82 519.056 460.113C518.412 460.241 518.838 460.199 517.777 459.994C517.417 458.458 528.234 415.84 529.39 411.358C544.519 407.237 559.687 403.379 574.724 398.874C581.697 396.784 589.16 394.646 596.371 393.82C597.868 393.649 602.856 395.122 604.532 395.569C620.736 391.149 636.21 386.288 652.697 382.055Z"/><path fill="#56676B" d="M486.635 453.639L487.363 453.607C490.652 455.147 503.189 468.767 506.776 472.317C504.573 480.16 497.878 495.448 494.625 503.58C500.121 510.629 506.586 519.362 512.47 525.896C499.274 530.439 485.31 533.856 471.975 538.033C465.374 540.101 458.244 541.993 451.471 543.377L453.378 537.679C456.137 529.065 459.001 520.485 461.969 511.941C452.285 514.845 438.547 520.723 429.187 524.688C437.537 484.628 430.138 491.093 459.371 459.39C468.445 457.409 477.534 455.492 486.635 453.639Z"/><path fill="#9DB136" d="M398.414 399.869C403.295 402.243 410.499 407.297 415.096 410.407L439.513 426.979C443.281 426.725 446.911 426.688 450.686 426.631C459.951 431.732 471.242 441.027 481.691 446.9C473.249 448.542 459.691 449.544 452.766 454.388C445.83 461.382 438.721 470.385 431.444 477.905C424.755 473.314 417.998 468.823 411.175 464.432C406.88 461.643 399.383 457.081 395.816 453.714C390.259 429.742 391.584 423.86 398.414 399.869Z"/><path fill="#9DB136" d="M573.4 453.57C576.686 453.304 592.348 456.163 596.925 456.785C597.165 467.774 595.892 485.219 596.864 495.226C588.588 493.426 578.594 490.935 570.401 489.82C568.304 490.615 565.96 491.678 563.906 492.616C552.789 497.694 540.901 500.61 529.149 503.854C524.62 504.734 513.443 508.305 508.438 509.717C507.137 508.566 505.622 506.811 504.421 505.501C507.165 494.373 510.963 482.949 513.906 471.709C533.878 466.134 553.715 460.086 573.4 453.57Z"/><defs><linearGradient id="gradient_0" gradientUnits="userSpaceOnUse" x1="409.73907" y1="722.45343" x2="401.77975" y2="739.2356"><stop offset="0" stop-color="white" stop-opacity="0"/><stop offset="1" stop-color="#F4F6F6" stop-opacity="0.047058824"/></linearGradient></defs><path fill="url(#gradient_0)" d="M408.98 727.998L409.136 727.927L409.067 727.573C406.701 727.552 405.06 727.554 402.685 727.274C403.964 725.242 406.891 726.748 409.001 726.508C408.455 726.571 412.839 724.266 413.162 724.116L412.72 724.968L413.145 724.145C412.636 725.08 412.328 725.473 411.661 726.29L411.813 727.426C410.16 731.419 406.371 741.465 403.845 744.388C405.937 738.581 407.329 733.953 408.98 727.998Z"/><defs><linearGradient id="gradient_1" gradientUnits="userSpaceOnUse" x1="434.08691" y1="712.02045" x2="436.28867" y2="714.71527"><stop offset="0" stop-color="white" stop-opacity="0"/><stop offset="1" stop-color="#FDFDFD" stop-opacity="0.031372551"/></linearGradient></defs><path fill="url(#gradient_1)" d="M436.685 711.603C438.425 711.515 439.19 711.156 440.444 711.873C439.355 713.126 438.078 713.541 436.558 714.258L436.233 713.959C434.76 714.17 433.709 714.745 432.35 715.346C433.105 714.327 433.328 714.064 433.571 712.821C434.738 712.587 434.917 712.558 435.933 712.014L436.685 711.603Z"/><path fill="#030103" fill-opacity="0.011764706" d="M597.141 722.302C597.74 723.726 598.461 724.767 598.112 726.209C596.587 726.843 596.992 726.597 594.922 725.88L594.734 726.016L594.07 725.807C595.274 723.812 595.307 723.643 597.141 722.302Z"/><path fill="#FEFFFE" fill-opacity="0.011764706" d="M572.35 314.408C572.482 315.406 572.576 316.086 572.798 317.065L573.43 315.185C574.52 314.684 574.742 314.486 575.967 315.123C575.072 316.448 573.868 318.681 572.516 319.254C571.741 318.058 572.198 315.967 572.35 314.408Z"/></svg>