<?xml version="1.0" encoding="utf-8" ?><svg xmlns="http://www.w3.org/2000/svg" xmlns:xlink="http://www.w3.org/1999/xlink" width="1024" height="1024" viewBox="0 0 1024 1024"><path fill="#55676C" d="M637.25 410.295C641.335 408.868 644.784 407.821 648.957 406.665C649.182 418.34 649.717 430.007 650.56 441.654C642.038 443.445 632.65 444.913 624.394 447.109C633.076 475.794 641.986 504.41 651.125 532.953L579.022 546.515C567.862 548.563 548.237 551.602 537.856 554.347L537.914 554.753L554.945 557.163C563.817 574.752 572.239 593.441 580.924 611.206C584.882 619.301 589.909 628.896 593.538 636.906C571.824 661.952 550.417 689.803 529.093 715.428L530.11 716.018C533.234 712.578 537.35 708.472 540.836 705.409C549.302 697.97 557.715 688.256 566.52 681.35C581.134 684.087 598.99 685.491 614.192 687.734C614.532 683.79 614.822 678.894 615.42 675.055C623.96 675.247 632.5 675.385 641.041 675.469L641.023 705.664C638.427 703.821 635.866 701.962 633.18 700.254C635.39 716.498 638.581 732.626 640.717 748.787C624.336 748.808 604.984 749.288 588.848 748.593C589.997 741.792 593.557 730.513 601.847 729.801C605.622 731.339 604.636 734.204 604.252 737.594C604.48 738.574 604.557 738.559 605.2 739.448C606.739 734.731 607.734 731.974 610.528 727.885C612.604 727.623 615.289 727.554 617.423 727.438C619.967 726.967 621.447 727.323 623.406 726.134C618.242 725.767 613.073 725.48 607.9 725.274C609.707 719.328 611.462 713.618 612.983 707.589C610.806 707.502 605.219 706.856 603.398 707.347C598.852 708.572 594.179 711.698 589.743 713.721C572.899 721.551 556.11 729.499 539.376 737.561C534.659 739.806 518.079 748.245 514.006 748.388C502.103 748.804 487.898 747.582 475.754 747.484C481.448 734.138 523.875 633.576 527.337 630.283L531.592 626.236C524.836 620.922 512.552 613.423 505.024 608.151C490.245 597.803 475.141 587.254 460.108 577.304C465.871 567.706 470.904 553.13 476.609 542.515C489.667 537.736 505.49 532.942 518.809 529.138L514.358 520.755C524.504 516.998 534.729 513.457 545.027 510.137C550.852 516.221 556.277 522.834 561.705 529.287L563.124 528.899C560.116 522.506 557.207 515.915 554.173 509.583L569.738 500.387C583.362 503.414 596.816 505.618 610.467 508.89L604.765 502.271L604.486 434.698C613.808 432.267 623.931 430.603 633.693 428.186C634.812 422.209 635.998 416.245 637.25 410.295Z"/><path fill="#C8CCCE" d="M623.406 726.134C624.238 726.108 630.531 726.213 630.601 727.142C630.032 727.695 620.858 727.526 619.417 727.501C618.752 727.483 618.087 727.462 617.423 727.438C619.967 726.967 621.447 727.323 623.406 726.134Z"/><path fill="#C8CCCE" d="M603.625 745.583C603.627 743.75 603.668 739.292 604.252 737.594C604.48 738.574 604.557 738.559 605.2 739.448C604.888 741.261 604.119 743.699 603.625 745.583Z"/><path fill="#C8CCCE" d="M529.093 715.428L530.11 716.018C529.699 716.476 528.034 718.547 527.31 718.55C526.903 717.784 528.688 715.924 529.093 715.428Z"/><path fill="#F7F7F0" d="M561.705 529.287L563.124 528.899C563.238 529.106 564.81 531.493 564.144 531.745C563.487 531.571 562.137 529.812 561.705 529.287Z"/><path fill="#C8CCCE" d="M537.914 554.753C537.451 554.756 537.027 554.865 536.64 554.638L536.626 554.584C536.64 554.565 536.648 554.541 536.666 554.528C536.953 554.322 537.581 554.359 537.856 554.347L537.914 554.753Z"/><path fill="#9CB035" d="M499.046 309.904C512.456 299.276 527.464 281.022 540.049 270.94C537.441 281.374 535.827 290.539 533.954 301.165C540.341 295.655 544.384 292.519 550.199 286.325C548.78 290.67 547.2 295.188 546.164 299.622L548.242 299.475C554.572 290.773 561.302 282.368 568.409 274.288C566.469 286.241 563.266 298.404 561.151 310.446L563.364 310.224C566.141 305.576 568.656 301.801 572.475 297.908C572.374 305.777 572.17 313.645 571.864 321.509C574.974 316.897 578.147 312.328 581.381 307.801C581.57 313.071 582.113 319.375 581.534 324.498C585.582 320.071 593.011 311.526 597.169 307.758L595.265 329.955C601.282 324.38 607.468 318.991 613.814 313.794C611.684 319.658 608.521 327.647 606.806 333.454C610.135 331.815 614.062 329.58 617.312 328.175C615.61 332.594 613.741 336.946 611.708 341.223C617.882 337.229 623.984 334.374 630.506 331.029C630.472 336.725 630.511 342.579 630.341 348.259C638.455 340.523 646.11 332.783 654.368 325.064C655.537 324.045 657.056 322.633 658.248 321.716C657.383 324.78 656.487 328.223 655.464 331.205C653.501 338.613 650.963 346.207 648.69 353.568C655.1 348.444 660.47 345.116 667.403 340.753C664.915 350.171 661.128 362.462 658.053 371.687L624.665 380.762C618.15 382.567 611.341 384.568 604.741 385.974C601.331 386.7 596.745 383.529 592.821 384.642C585.479 386.725 578.088 388.962 570.766 391.083L529.041 402.894C525.765 400.536 522.299 398.146 518.941 395.909C502.951 385.258 487.398 373.448 471.205 363.177C467.895 363.452 464.487 363.831 461.171 364.155C457.617 362.418 450.234 357.138 446.85 354.775C435.871 347.106 425.382 339.249 414.186 331.844C414.895 328.781 416.403 320.525 417.492 317.826C421.73 307.329 427.12 296.53 431.762 286.143C433.838 280.73 432.687 290.89 432.546 291.677C432.176 300.524 431.657 312.37 430.244 321.005C439.693 311.274 448.897 302.033 458.137 292.088C457.597 299.704 456.107 308.448 455.827 315.61C460.997 306.9 471.324 288.408 477.166 281.157C476.507 287.246 476.023 299.058 475.15 303.962L476.856 304.977C479.88 299.667 483.182 294.52 486.748 289.557L487.754 288.012L488.314 288.049C488.514 290.64 487.978 293.072 487.573 295.655C487.256 300.059 486.877 304.458 486.436 308.852C491.645 304.391 497.518 299.225 503.03 295.172C501.842 300.359 500.549 304.817 499.046 309.904Z"/><path fill="#AAAF54" d="M431.762 286.143C433.838 280.73 432.687 290.89 432.546 291.677C432.306 289.545 432.548 287.881 431.762 286.143Z"/><path fill="#F7F7F0" d="M546.164 299.622L548.242 299.475C546.554 302.285 544.417 304.998 546.164 299.622Z"/><path fill="#F7F7F0" d="M561.151 310.446L563.364 310.224C562.23 311.667 560.804 313.808 561.151 310.446Z"/><path fill="#F7F7F0" d="M476.856 304.977C475.148 306.47 474.987 306.243 475.15 303.962L476.856 304.977Z"/><path fill="#55676C" d="M401.422 614.029C425.29 615.805 450.313 616.19 474.27 617.774C483.018 618.353 496.477 618.247 504.783 619.378C508.789 622.189 513.686 626.164 517.301 629.378C512.369 644.611 507.227 657.602 502.494 673.586C487.299 666.008 472.639 658.185 457.684 650.183C448.665 645.357 439.64 641.255 430.635 636.159L429.981 637.043C441.231 645.508 458.915 657.929 469.116 666.531C465.38 679.317 461.225 693.37 457.239 706.087C461.848 719.908 466.124 733.419 470.917 747.202C461.469 747.061 452.019 747.009 442.57 747.047C442.477 743.008 442.468 738.575 442.112 734.583L429.594 748.769C414.198 748.535 398.8 748.463 383.402 748.552C385.234 743.375 389.198 732.597 391.632 727.99C397.227 728.026 403.048 727.984 408.622 728.118C407.777 731.191 405.884 738.881 404.831 741.51L405.758 741.74C407.817 737.179 411.199 729.182 413.591 725.154C422.976 720.617 433.086 717.146 441.872 711.368L432.762 711.566C430.592 702.09 423.971 683.451 420.838 673.874L401.422 614.029Z"/><path fill="#C8CCCE" d="M423.498 631.924C425.588 633.094 428.729 634.778 430.635 636.159L429.981 637.043C427.975 635.772 425.339 633.488 423.498 631.924Z"/><path fill="#C8CCCE" d="M404.831 741.51L405.758 741.74C405.592 742.265 404.996 744.098 404.322 744.147C404.023 743.674 404.689 741.97 404.831 741.51Z"/><path fill="#9CB035" d="M412.361 341.262C415.666 343.093 420.595 347.061 424.052 349.247C434.85 356.076 447.35 365.974 458.248 372.086L468.743 371.866C486.463 383.461 507.719 398.484 524.831 410.753C523.735 416.667 516.166 458.399 514.596 459.902C512.578 458.783 510.122 457.187 508.202 455.854C490.029 443.239 471.475 430.98 453.343 418.322L441.939 418.425C428.421 409.699 413.786 398.706 400.321 390.606C402.87 377.17 408.647 354.562 412.361 341.262Z"/><path fill="#55676C" d="M384.413 437.12C386.626 444.629 388.153 451.947 389.744 459.605C400.716 466.867 412.676 473.942 423.927 480.746C422.461 493.508 420.173 505.357 418.296 517.948C416.583 529.444 415.19 540.925 413.423 552.481L414.654 552.675C418.118 546.499 422.536 539.034 426.591 533.265C434.2 532.071 443.078 529.377 450.587 527.237C447.859 534.727 445.201 543.723 442.729 551.428L466.827 545.041C463.5 551.59 457.546 561.534 453.734 567.795C450.846 568.721 447.219 569.728 444.241 570.361C416.857 576.185 389.528 584.239 362.183 589.99C365.729 582.54 370.515 569.159 373.715 561.073L400.684 492.3C391.107 485.28 381.715 478.01 372.518 470.498C375.7 460.848 380.429 446.137 384.413 437.12Z"/><path fill="#F7F7F0" d="M413.423 552.481L414.654 552.675C414.416 553.07 413.75 554.481 413.304 554.623L413.237 554.573C413.024 554.039 413.318 553.021 413.423 552.481Z"/><path fill="#9CB035" d="M653.789 381.524L654.175 381.599C654.599 382.482 649.356 398.791 648.635 401.195C642.478 402.761 636.294 404.215 630.084 405.556C628.537 410.809 627.166 418.179 625.623 423.947C616.247 426.266 606.826 428.404 597.367 430.361C597.253 436.213 597.405 441.713 597.171 447.671C590.57 446.842 582.588 444.797 576.079 444.739C571.174 444.911 565.913 447.507 561.251 448.503C547.629 451.414 533.248 457.493 519.873 460.42L519.111 460.583C518.295 460.559 518.054 460.444 517.253 460.254C519.58 448.759 523.608 437.079 526.086 425.552C527.088 420.893 528.198 416.09 529.521 411.517C533.08 410.393 537.94 409.336 541.678 408.291L569.104 400.409C577.154 398.152 586.46 395.291 594.685 393.73C597.122 393.268 601.89 394.97 604.452 395.752C620.836 390.797 637.283 386.054 653.789 381.524Z"/><path fill="#55676C" d="M486.438 453.625L487.71 453.517C490.377 454.98 503.459 468.991 507.159 472.359C504.045 481.831 498.601 493.997 494.685 503.348C500.021 510.619 506.629 518.964 512.324 525.885C495.137 531.76 468.678 539.461 451.247 543.447L452.745 538.865C455.614 529.715 459.048 520.955 462.028 511.864C453.582 514.613 437.017 521.202 429.089 524.996C431.899 512.413 433.937 498.109 436.768 485.877C437.25 483.796 456.583 462.311 459.219 459.279C468.312 457.492 477.385 455.607 486.438 453.625Z"/><path fill="#9CB035" d="M398.381 399.679C400.141 400.547 402.007 401.805 403.623 402.941C415.257 411.115 428.027 418.411 439.272 427.05C443.093 426.782 446.918 426.573 450.746 426.424C460.349 433.329 471.967 440.642 481.983 447.343C476.094 447.526 456.578 450.604 452.783 454.428C446.913 461.351 437.546 471.739 431.145 477.988C421.992 471.303 412.503 465.331 403.056 459.081C400.558 457.429 398.092 455.888 395.914 453.813C394.506 448.946 391.452 432.057 392.089 427.567C393.213 419.656 396.401 407.773 398.381 399.679Z"/><path fill="#9CB035" d="M573.557 453.493C576.72 453.427 591.162 456.361 596.95 456.861C596.617 469.696 596.46 482.534 596.479 495.373C588.07 493.294 578.353 491.003 569.838 489.811C565.443 491.721 557.839 495.737 553.634 497.014C545.251 499.56 536.142 501.797 527.626 504.184L508.588 509.858C506.781 508.138 505.966 507.147 504.408 505.183C507.179 493.561 511.27 483.669 513.766 471.686C520.711 469.999 529.686 467.077 536.642 464.996C548.801 461.357 561.589 457.619 573.557 453.493Z"/></svg>